<svg xmlns="http://www.w3.org/2000/svg" xmlns:xlink="http://www.w3.org/1999/xlink" viewBox="0 0 512 512" width="512" height="512" style="width: 100%; height: 100%; transform: translate3d(0,0,0); content-visibility: visible;" preserveAspectRatio="xMidYMid meet"><defs><clipPath id="__lottie_element_2"><rect width="512" height="512" x="0" y="0"></rect></clipPath></defs><g clip-path="url(#__lottie_element_2)"><g style="display: block;" transform="matrix(0.75,0,0,0.75,233.3125,100.47723388671875)" opacity="1"><g opacity="1" transform="matrix(1,0,0,1,30.25,199.64100646972656)"><path fill="rgb(79,169,248)" fill-opacity="1" d=" M0.17900000512599945,217.60499572753906 C0.17900000512599945,217.60499572753906 0.17900000512599945,217.60499572753906 0.17900000512599945,217.60499572753906 C-16.388999938964844,217.60499572753906 -29.820999145507812,204.1739959716797 -29.820999145507812,187.60499572753906 C-29.820999145507812,187.60499572753906 -30,-198.677001953125 -30,-198.677001953125 C-30,-198.677001953125 30,-198.677001953125 30,-198.677001953125 C30,-198.677001953125 30.179000854492188,187.60499572753906 30.179000854492188,187.60499572753906 C30.179000854492188,204.1739959716797 16.746999740600586,217.60499572753906 0.17900000512599945,217.60499572753906z"></path></g></g><g style="display: none;"><g><path></path></g></g><g style="display: block;" transform="matrix(0.75,0,0,0.75,70.35775756835938,81.60874938964844)" opacity="1"><g opacity="1" transform="matrix(1,0,0,1,247.81700134277344,243.30999755859375)"><path fill="rgb(79,169,248)" fill-opacity="1" d=" M0.13099999725818634,243.30999755859375 C0.13099999725818634,243.30999755859375 0.13099999725818634,243.30999755859375 0.13099999725818634,243.30999755859375 C-21.635000228881836,243.30999755859375 -41.11800003051758,232.0590057373047 -51.98500061035156,213.21200561523438 C-51.98500061035156,213.21200561523438 -229.72500610351562,-94.79100036621094 -229.72500610351562,-94.79100036621094 C-247.56500244140625,-125.70600128173828 -247.56700134277344,-162.60499572753906 -229.72799682617188,-193.4949951171875 C-211.80499267578125,-224.531005859375 -179.71099853515625,-243.05999755859375 -143.8769989013672,-243.05999755859375 C-143.8769989013672,-243.05999755859375 -54.2869987487793,-243.05999755859375 -54.2869987487793,-243.05999755859375 C-54.2869987487793,-243.05999755859375 9.402999877929688,-243.05999755859375 9.402999877929688,-243.05999755859375 C9.402999877929688,-243.05999755859375 89.07099914550781,-243.05999755859375 89.07099914550781,-243.05999755859375 C89.07099914550781,-243.05999755859375 144.10499572753906,-243.05999755859375 144.10499572753906,-243.05999755859375 C179.96299743652344,-243.05999755859375 212.0679931640625,-224.53900146484375 229.98599243164062,-193.51499938964844 C247.81700134277344,-162.64100646972656 247.80499267578125,-125.73600006103516 229.95199584960938,-94.79299926757812 C229.95199584960938,-94.79299926757812 52.24300003051758,213.218994140625 52.24300003051758,213.218994140625 C41.380001068115234,232.05799865722656 21.895999908447266,243.30999755859375 0.13099999725818634,243.30999755859375z M0.03200000151991844,183.30499267578125 C0.09399999678134918,183.30999755859375 0.1679999977350235,183.30999755859375 0.23100000619888306,183.30499267578125 C0.24199999868869781,183.28599548339844 0.2549999952316284,183.26499938964844 0.26899999380111694,183.24099731445312 C0.26899999380111694,183.24099731445312 177.98300170898438,-124.77799987792969 177.98300170898438,-124.77799987792969 C188.09300231933594,-142.30099487304688 181.38400268554688,-157.6999969482422 178.02999877929688,-163.5070037841797 C170.95799255371094,-175.75100708007812 158.27699279785156,-183.05999755859375 144.10499572753906,-183.05999755859375 C144.10499572753906,-183.05999755859375 94.98799896240234,-183.05999755859375 94.98799896240234,-183.05999755859375 C94.98799896240234,-183.05999755859375 7.821000099182129,-183.05999755859375 7.821000099182129,-183.05999755859375 C7.821000099182129,-183.05999755859375 5.6579999923706055,-183.05999755859375 5.6579999923706055,-183.05999755859375 C5.6579999923706055,-183.05999755859375 3.8389999866485596,-183.05999755859375 3.8389999866485596,-183.05999755859375 C3.8389999866485596,-183.05999755859375 -35.805999755859375,-183.05999755859375 -35.805999755859375,-183.05999755859375 C-35.805999755859375,-183.05999755859375 -143.8769989013672,-183.05999755859375 -143.8769989013672,-183.05999755859375 C-158.0229949951172,-183.05999755859375 -170.6929931640625,-175.74400329589844 -177.7689971923828,-163.49000549316406 C-181.1269989013672,-157.67599487304688 -187.8470001220703,-142.26499938964844 -177.7570037841797,-124.77999877929688 C-177.7570037841797,-124.77999877929688 -0.012000000104308128,183.23300170898438 -0.012000000104308128,183.23300170898438 C0.004000000189989805,183.26100158691406 0.01899999938905239,183.28399658203125 0.03200000151991844,183.30499267578125z"></path></g></g><g style="display: none;"><g><path></path></g></g></g></svg>