<svg xmlns="http://www.w3.org/2000/svg" xmlns:xlink="http://www.w3.org/1999/xlink" viewBox="0 0 512 512" width="512" height="512" style="width: 100%; height: 100%; transform: translate3d(0,0,0); content-visibility: visible;" preserveAspectRatio="xMidYMid meet"><defs><clipPath id="__lottie_element_2"><rect width="512" height="512" x="0" y="0"></rect></clipPath></defs><g clip-path="url(#__lottie_element_2)"><g style="display: block;" transform="matrix(1,0,0,1,256,256)" opacity="1"><g opacity="1" transform="matrix(1,0,0,1,0,0)"></g></g><g style="display: block;" transform="matrix(1,0,0,1,256,256)" opacity="1"><g opacity="1" transform="matrix(1,0,0,1,0,0)"><path fill="rgb(68,163,221)" fill-opacity="1" d=" M226,0 C226,0 226,0 226,0 C226,124.72940063476562 124.72940063476562,226 0,226 C0,226 0,226 0,226 C-124.72940063476562,226 -226,124.72940063476562 -226,0 C-226,0 -226,0 -226,0 C-226,-124.72940063476562 -124.72940063476562,-226 0,-226 C0,-226 0,-226 0,-226 C124.72940063476562,-226 226,-124.72940063476562 226,0z"></path></g></g><g style="display: block;" transform="matrix(1,0,0,1,208.56300354003906,272.5)" opacity="1"><g opacity="1" transform="matrix(1,0,0,1,0,0)"><path fill="rgb(190,229,247)" fill-opacity="1" d=" M-91.87300109863281,-82.5 C-91.87300109863281,-82.5 2.0369999408721924,-82.5 2.0369999408721924,-82.5 C9.097000122070312,-82.5 15.57699966430664,-78.62000274658203 18.94700050354004,-72.37999725341797 C18.94700050354004,-72.37999725341797 102.56700134277344,82.5 102.56700134277344,82.5 C102.56700134277344,82.5 -9.322999954223633,82.5 -9.322999954223633,82.5 C-16.37299919128418,82.5 -22.863000869750977,78.62000274658203 -26.232999801635742,72.37999725341797 C-26.232999801635742,72.37999725341797 -101.26300048828125,-66.5999984741211 -101.26300048828125,-66.5999984741211 C-104.08300018310547,-71.81999969482422 -102.16300201416016,-78.36000061035156 -96.9729995727539,-81.19000244140625 C-95.40299987792969,-82.05000305175781 -93.65299987792969,-82.5 -91.87300109863281,-82.5z"></path></g></g><g style="display: block;" transform="matrix(1,0,0,1,297.3710021972656,272.5)" opacity="1"><g opacity="1" transform="matrix(1,0,0,1,0,0)"><path fill="rgb(255,255,255)" fill-opacity="1" d=" M97.94100189208984,-82.5 C99.72100067138672,-82.5 101.47100067138672,-82.05000305175781 103.04100036621094,-81.19000244140625 C108.07099914550781,-78.44000244140625 110.03099822998047,-72.22000122070312 107.57099914550781,-67.08000183105469 C107.57099914550781,-67.08000183105469 107.33100128173828,-66.5999984741211 107.33100128173828,-66.5999984741211 C107.33100128173828,-66.5999984741211 32.30099868774414,72.37999725341797 32.30099868774414,72.37999725341797 C29.041000366210938,78.41999816894531 22.861000061035156,82.25 16.070999145507812,82.48999786376953 C16.070999145507812,82.48999786376953 15.390999794006348,82.5 15.390999794006348,82.5 C15.390999794006348,82.5 -94.7490005493164,82.5 -94.7490005493164,82.5 C-94.7490005493164,82.5 -98.12899780273438,82.5 -98.12899780273438,82.5 C-98.12899780273438,82.5 -98.80899810791016,82.48999786376953 -98.80899810791016,82.48999786376953 C-102.35900115966797,82.36000061035156 -105.73899841308594,81.25 -108.62899780273438,79.36000061035156 C-107.17900085449219,80.19999694824219 -105.54900360107422,80.73999786376953 -103.79900360107422,80.9000015258789 C-103.61900329589844,80.91000366210938 -102.11900329589844,81.05000305175781 -100.45899963378906,80.5999984741211 C-99.7490005493164,80.41000366210938 -97.14900207519531,79.80000305175781 -94.39900207519531,77.20999908447266 C-93.15899658203125,76.05000305175781 -90.9489974975586,72.22000122070312 -90.9489974975586,72.22000122070312 C-90.9489974975586,72.22000122070312 -38.89899826049805,-24.18000030517578 -12.878999710083008,-72.37999725341797 C-9.619000434875488,-78.41999816894531 -3.438999891281128,-82.25 3.3510000705718994,-82.48999786376953 C3.3510000705718994,-82.48999786376953 4.031000137329102,-82.5 4.031000137329102,-82.5 C4.031000137329102,-82.5 97.94100189208984,-82.5 97.94100189208984,-82.5z"></path></g></g></g></svg>