<svg xmlns="http://www.w3.org/2000/svg" xmlns:xlink="http://www.w3.org/1999/xlink" viewBox="0 0 512 512" width="512" height="512" style="width: 100%; height: 100%; transform: translate3d(0,0,0); content-visibility: visible;" preserveAspectRatio="xMidYMid meet"><defs><clipPath id="__lottie_element_2"><rect width="512" height="512" x="0" y="0"></rect></clipPath><linearGradient id="__lottie_element_6" spreadMethod="pad" gradientUnits="userSpaceOnUse" x1="191.24000549316406" y1="46.279998779296875" x2="193.24000549316406" y2="338.19000244140625"><stop offset="0%" stop-color="rgb(255,181,0)" stop-opacity="1"></stop><stop offset="50%" stop-color="rgb(245,156,0)" stop-opacity="1"></stop><stop offset="100%" stop-color="rgb(237,130,0)" stop-opacity="1"></stop></linearGradient><linearGradient id="__lottie_element_7" spreadMethod="pad" gradientUnits="userSpaceOnUse" x1="191.1199951171875" y1="51.13999938964844" x2="193.3300018310547" y2="338.3800048828125"><stop offset="0%" stop-color="rgb(204,112,0)" stop-opacity="1"></stop><stop offset="50%" stop-color="rgb(199,102,0)" stop-opacity="1"></stop><stop offset="100%" stop-color="rgb(196,92,0)" stop-opacity="1"></stop></linearGradient><linearGradient id="__lottie_element_8" spreadMethod="pad" gradientUnits="userSpaceOnUse" x1="265.7699890136719" y1="345.739990234375" x2="154.6199951171875" y2="52.11000061035156"><stop offset="0%" stop-color="rgb(255,163,0)" stop-opacity="1"></stop><stop offset="50%" stop-color="rgb(255,194,46)" stop-opacity="1"></stop><stop offset="100%" stop-color="rgb(255,222,94)" stop-opacity="1"></stop></linearGradient></defs><g clip-path="url(#__lottie_element_2)"><g style="display: block;" transform="matrix(1.333299994468689,0,0,1.333299994468689,0,0)" opacity="1"><g opacity="1" transform="matrix(1,0,0,1,0,0)"><g opacity="1" transform="matrix(1,0,0,1,0,0)"><path fill="url(#__lottie_element_6)" fill-opacity="1" d=" M140.02000427246094,126.94999694824219 C140.02000427246094,126.94999694824219 175.85000610351562,55.75 175.85000610351562,55.75 C179.9600067138672,47.7599983215332 191.0399932861328,44.20000076293945 199.35000610351562,48.15999984741211 C202.58999633789062,49.7400016784668 205.91000366210938,52.75 207.49000549316406,56.06999969482422 C207.49000549316406,56.06999969482422 241.58999633789062,125.5999984741211 241.58999633789062,125.5999984741211 C244.36000061035156,131.3000030517578 248.8699951171875,134.13999938964844 255.0399932861328,134.92999267578125 C255.0399932861328,134.92999267578125 325.20001220703125,143.32000732421875 325.20001220703125,143.32000732421875 C335.55999755859375,144.58999633789062 342.9200134277344,154.94000244140625 341.7300109863281,164.75 C341.260009765625,168.7899932861328 339.44000244140625,173.05999755859375 336.5899963378906,175.91000366210938 C336.5899963378906,175.91000366210938 280.42999267578125,231.52000427246094 280.42999267578125,231.52000427246094 C278.1300048828125,233.82000732421875 277.5799865722656,236.42999267578125 277.9700012207031,239.58999633789062 C277.9700012207031,239.58999633789062 287.07000732421875,314.80999755859375 287.07000732421875,314.80999755859375 C288.4100036621094,325.6499938964844 279.7900085449219,335.6099853515625 269.1099853515625,336.9599914550781 C265.07000732421875,337.42999267578125 260.4100036621094,336.9599914550781 256.7699890136719,334.9800109863281 C256.7699890136719,334.9800109863281 198.47999572753906,302.8699951171875 198.47999572753906,302.8699951171875 C192.94000244140625,300.0199890136719 189.05999755859375,300.1700134277344 184.7100067138672,302.4700012207031 C184.7100067138672,302.4700012207031 124.27999877929688,333.79998779296875 124.27999877929688,333.79998779296875 C115.58000183105469,338.30999755859375 103.4800033569336,334.739990234375 99.05000305175781,325.9599914550781 C97.38999938964844,322.6400146484375 96.04000091552734,319.1600036621094 96.66999816894531,314.7300109863281 C96.66999816894531,314.7300109863281 101.33999633789062,280.6400146484375 101.33999633789062,280.6400146484375 C103.87000274658203,262.2099914550781 114.94000244140625,246.77999877929688 129.97000122070312,239.02999877929688 C129.97000122070312,239.02999877929688 193.97000122070312,205.72999572753906 193.97000122070312,205.72999572753906 C198,203.35000610351562 198.22999572753906,201.13999938964844 192.3000030517578,201.92999267578125 C192.3000030517578,201.92999267578125 113.05000305175781,212.77000427246094 113.05000305175781,212.77000427246094 C100.2300033569336,214.58999633789062 86.47000122070312,210 76.41999816894531,201.77000427246094 C76.41999816894531,201.77000427246094 48.88999938964844,178.91000366210938 48.88999938964844,178.91000366210938 C41.220001220703125,172.89999389648438 39.880001068115234,159.52999877929688 46.36000061035156,151.4600067138672 C49.369998931884766,147.75 54.189998626708984,144.33999633789062 58.86000061035156,143.7100067138672 C58.86000061035156,143.7100067138672 130.3699951171875,134.4600067138672 130.3699951171875,134.4600067138672 C134.9600067138672,133.97999572753906 137.97000122070312,131.13999938964844 140.02000427246094,126.94999694824219 C140.02000427246094,126.94999694824219 140.02000427246094,126.94999694824219 140.02000427246094,126.94999694824219z"></path></g><g opacity="1" transform="matrix(1,0,0,1,0,0)"><path fill="url(#__lottie_element_7)" fill-opacity="1" d=" M236.77999877929688,127.2300033569336 C236.77999877929688,127.2300033569336 236.77000427246094,127.22000122070312 236.77000427246094,127.22000122070312 C236.77000427246094,127.22000122070312 201.9600067138672,56.18000030517578 201.9600067138672,56.18000030517578 C201.9499969482422,56.15999984741211 201.94000244140625,56.130001068115234 201.92999267578125,56.11000061035156 C201.05999755859375,54.279998779296875 198.8800048828125,52.18000030517578 196.63999938964844,51.06999969482422 C191.17999267578125,48.4900016784668 183.75,51.04999923706055 181.2100067138672,55.939998626708984 C181.2100067138672,55.939998626708984 144.63999938964844,128.63999938964844 144.63999938964844,128.63999938964844 C141.92999267578125,134.16000366210938 137.3000030517578,139.05999755859375 129.75999450683594,139.8699951171875 C129.75999450683594,139.8699951171875 56.84000015258789,149.30999755859375 56.84000015258789,149.30999755859375 C56.84000015258789,149.30999755859375 56.84000015258789,149.32000732421875 56.83000183105469,149.32000732421875 C54.209999084472656,149.67999267578125 50.63999938964844,151.92999267578125 48.2400016784668,154.88999938964844 C46.150001525878906,157.5 45.15999984741211,161.22000122070312 45.52000045776367,165.02999877929688 C45.880001068115234,168.8699951171875 47.54999923706055,172.02999877929688 49.790000915527344,173.7899932861328 C49.84000015258789,173.8300018310547 49.880001068115234,173.8699951171875 49.93000030517578,173.91000366210938 C49.93000030517578,173.91000366210938 78,197.24000549316406 78,197.24000549316406 C78.01000213623047,197.24000549316406 78.01000213623047,197.25 78.0199966430664,197.25 C87.08000183105469,204.6699981689453 99.36000061035156,208.64999389648438 110.4000015258789,207.0800018310547 C110.4000015258789,207.0800018310547 110.44000244140625,207.07000732421875 110.44000244140625,207.07000732421875 C110.44000244140625,207.07000732421875 191.3800048828125,196 191.3800048828125,196 C191.3800048828125,196 191.39999389648438,196 191.39999389648438,196 C193.1699981689453,195.75999450683594 195.05999755859375,195.64999389648438 196.7899932861328,195.9600067138672 C198,196.1699981689453 202.16000366210938,197.17999267578125 203.2100067138672,201.63999938964844 C203.69000244140625,203.66000366210938 203.1999969482422,205.38999938964844 202.6999969482422,206.47999572753906 C202.1999969482422,207.55999755859375 201.52999877929688,208.38999938964844 200.99000549316406,208.97000122070312 C199.89999389648438,210.1300048828125 198.5399932861328,211.08999633789062 197.22999572753906,211.86000061035156 C197.1300048828125,211.91000366210938 197.0399932861328,211.97000122070312 196.94000244140625,212.02000427246094 C196.94000244140625,212.02000427246094 131.5800018310547,246.05999755859375 131.5800018310547,246.05999755859375 C131.5800018310547,246.05999755859375 131.55999755859375,246.07000732421875 131.55999755859375,246.07000732421875 C118.1500015258789,253 108.06999969482422,266.9100036621094 105.76000213623047,283.7300109863281 C105.76000213623047,283.7300109863281 100.98999786376953,318.57000732421875 100.98999786376953,318.57000732421875 C100.98999786376953,318.57000732421875 100.98999786376953,318.6099853515625 100.98999786376953,318.6099853515625 C100.62000274658203,321.1600036621094 101.29000091552734,323.260009765625 102.79000091552734,326.2699890136719 C105.61000061035156,331.8399963378906 113.94000244140625,334.4700012207031 119.80999755859375,331.42999267578125 C119.80999755859375,331.42999267578125 181.49000549316406,299.44000244140625 181.49000549316406,299.44000244140625 C181.49000549316406,299.44000244140625 181.5,299.42999267578125 181.50999450683594,299.42999267578125 C184.39999389648438,297.9100036621094 187.55999755859375,296.8800048828125 191.16000366210938,296.92999267578125 C194.7100067138672,296.9800109863281 198.11000061035156,298.05999755859375 201.50999450683594,299.80999755859375 C201.55999755859375,299.8399963378906 201.6300048828125,299.8699951171875 201.67999267578125,299.8999938964844 C201.67999267578125,299.8999938964844 261.17999267578125,332.7099914550781 261.17999267578125,332.7099914550781 C261.17999267578125,332.7099914550781 261.19000244140625,332.7099914550781 261.20001220703125,332.7099914550781 C263.3900146484375,333.8900146484375 266.67999267578125,334.3699951171875 269.9100036621094,333.989990234375 C277.6400146484375,333 283.510009765625,325.7300109863281 282.6199951171875,318.57000732421875 C282.6199951171875,318.57000732421875 282.6199951171875,318.54998779296875 282.6199951171875,318.54998779296875 C282.6199951171875,318.54998779296875 273.3299865722656,241.69000244140625 273.3299865722656,241.69000244140625 C273.3299865722656,241.67999267578125 273.3299865722656,241.67999267578125 273.3299865722656,241.67999267578125 C272.75,237.0399932861328 273.57000732421875,232.17999267578125 277.67999267578125,228.07000732421875 C277.67999267578125,228.07000732421875 277.70001220703125,228.0500030517578 277.70001220703125,228.0500030517578 C277.70001220703125,228.0500030517578 335.0400085449219,171.22999572753906 335.0400085449219,171.22999572753906 C335.0400085449219,171.22999572753906 335.0400085449219,171.22999572753906 335.0400085449219,171.22999572753906 C336.75,169.52000427246094 338.0899963378906,166.5800018310547 338.42999267578125,163.64999389648438 C338.42999267578125,163.64999389648438 338.44000244140625,163.6300048828125 338.44000244140625,163.6300048828125 C339.25,156.89999389648438 334,149.75999450683594 327.20001220703125,148.9199981689453 C327.20001220703125,148.9199981689453 327.19000244140625,148.9199981689453 327.19000244140625,148.9199981689453 C327.19000244140625,148.9199981689453 255.5500030517578,140.35000610351562 255.5500030517578,140.35000610351562 C255.5500030517578,140.35000610351562 255.5,140.33999633789062 255.5,140.33999633789062 C247.30999755859375,139.2899932861328 240.6699981689453,135.22999572753906 236.77999877929688,127.2300033569336 C236.77999877929688,127.2300033569336 236.77999877929688,127.2300033569336 236.77999877929688,127.2300033569336z M207.77000427246094,53.33000183105469 C206.14999389648438,49.93000030517578 202.75999450683594,46.86000061035156 199.4499969482422,45.2400016784668 C190.97000122070312,41.20000076293945 179.64999389648438,44.83000183105469 175.4499969482422,53 C175.4499969482422,53 138.86000061035156,125.7699966430664 138.86000061035156,125.7699966430664 C136.75999450683594,130.05999755859375 133.67999267578125,132.97000122070312 129,133.4499969482422 C129,133.4499969482422 55.97999954223633,142.89999389648438 55.97999954223633,142.89999389648438 C51.209999084472656,143.5500030517578 46.279998779296875,147.02999877929688 43.209999084472656,150.8300018310547 C36.59000015258789,159.0800018310547 37.959999084472656,172.74000549316406 45.79999923706055,178.8800048828125 C45.79999923706055,178.8800048828125 73.91000366210938,202.25 73.91000366210938,202.25 C84.16999816894531,210.66000366210938 98.22000122070312,215.33999633789062 111.30999755859375,213.47999572753906 C111.30999755859375,213.47999572753906 192.25,202.41000366210938 192.25,202.41000366210938 C198.30999755859375,201.60000610351562 198.07000732421875,203.86000061035156 193.9499969482422,206.2899932861328 C193.9499969482422,206.2899932861328 128.60000610351562,240.32000732421875 128.60000610351562,240.32000732421875 C113.25,248.24000549316406 101.94999694824219,264.010009765625 99.36000061035156,282.8500061035156 C99.36000061035156,282.8500061035156 94.58999633789062,317.69000244140625 94.58999633789062,317.69000244140625 C93.94999694824219,322.2200012207031 95.31999969482422,325.7799987792969 97.0199966430664,329.1700134277344 C101.54000091552734,338.1400146484375 113.9000015258789,341.7900085449219 122.79000091552734,337.17999267578125 C122.79000091552734,337.17999267578125 184.5,305.1600036621094 184.5,305.1600036621094 C188.9499969482422,302.82000732421875 192.89999389648438,302.6600036621094 198.55999755859375,305.57000732421875 C198.55999755859375,305.57000732421875 258.0899963378906,338.3900146484375 258.0899963378906,338.3900146484375 C261.79998779296875,340.4100036621094 266.5799865722656,340.8900146484375 270.70001220703125,340.4100036621094 C281.6099853515625,339.0299987792969 290.4100036621094,328.8399963378906 289.0299987792969,317.7699890136719 C289.0299987792969,317.7699890136719 279.739990234375,240.88999938964844 279.739990234375,240.88999938964844 C279.3399963378906,237.66000366210938 279.9100036621094,234.99000549316406 282.25,232.63999938964844 C282.25,232.63999938964844 339.6000061035156,175.80999755859375 339.6000061035156,175.80999755859375 C342.510009765625,172.89999389648438 344.3699951171875,168.52999877929688 344.8599853515625,164.41000366210938 C346.07000732421875,154.3800048828125 338.54998779296875,143.7899932861328 327.9700012207031,142.5 C327.9700012207031,142.5 256.32000732421875,133.92999267578125 256.32000732421875,133.92999267578125 C250.02000427246094,133.1199951171875 245.41000366210938,130.2100067138672 242.5800018310547,124.38999938964844 C242.5800018310547,124.38999938964844 207.77000427246094,53.33000183105469 207.77000427246094,53.33000183105469z"></path></g><g opacity="1" transform="matrix(1,0,0,1,0,0)"><path fill="url(#__lottie_element_8)" fill-opacity="1" d=" M273.8500061035156,312.3599853515625 C273.8500061035156,312.3599853515625 264.5899963378906,238.9499969482422 264.5899963378906,238.9499969482422 C263.79998779296875,232.6199951171875 266.0199890136719,226.85000610351562 271.0799865722656,222.02999877929688 C271.0799865722656,222.02999877929688 325.42999267578125,168.16000366210938 325.42999267578125,168.16000366210938 C326.6199951171875,166.97000122070312 327.25,164.52000427246094 327.25,162.86000061035156 C327.25,158.82000732421875 324.55999755859375,156.52999877929688 320.67999267578125,156.0500030517578 C320.67999267578125,156.0500030517578 252.02000427246094,147.6699981689453 252.02000427246094,147.6699981689453 C242.4499969482422,146.47999572753906 234.05999755859375,140.30999755859375 229.7899932861328,131.61000061035156 C229.7899932861328,131.61000061035156 196.8800048828125,64.22000122070312 196.8800048828125,64.22000122070312 C196.25,62.95000076293945 194.6699981689453,61.91999816894531 193.39999389648438,61.369998931884766 C191.74000549316406,60.58000183105469 188.17999267578125,61.45000076293945 186.67999267578125,64.61000061035156 C186.67999267578125,64.61000061035156 150.69000244140625,133.8300018310547 150.69000244140625,133.8300018310547 C147.1300048828125,140.9499969482422 140.25,145.92999267578125 132.33999633789062,146.9600067138672 C132.33999633789062,146.9600067138672 62.959999084472656,156.4499969482422 62.959999084472656,156.4499969482422 C60.90999984741211,156.69000244140625 58.93000030517578,157.47999572753906 57.65999984741211,159.13999938964844 C55.529998779296875,161.91000366210938 56.400001525878906,168.30999755859375 59.79999923706055,171.16000366210938 C59.79999923706055,171.16000366210938 86.22000122070312,192.83999633789062 86.22000122070312,192.83999633789062 C93.80999755859375,199.08999633789062 102.98999786376953,202.1699981689453 112.72000122070312,200.8300018310547 C112.72000122070312,200.8300018310547 194.91000366210938,188.9600067138672 194.91000366210938,188.9600067138672 C200.83999633789062,188.08999633789062 206.61000061035156,191.17999267578125 209.3000030517578,196.47999572753906 C212.6999969482422,203.27999877929688 209.6999969482422,211.42999267578125 202.89999389648438,214.91000366210938 C202.89999389648438,214.91000366210938 136.61000061035156,248.9199981689453 136.61000061035156,248.9199981689453 C124.73999786376953,255.00999450683594 116.5999984741211,266.55999755859375 114.69999694824219,279.92999267578125 C114.69999694824219,279.92999267578125 110.02999877929688,313.6199951171875 110.02999877929688,313.6199951171875 C109.79000091552734,315.1199951171875 110.51000213623047,317.4200134277344 111.54000091552734,318.5299987792969 C114.1500015258789,321.4599914550781 117.06999969482422,322.3299865722656 120.55000305175781,320.5899963378906 C120.55000305175781,320.5899963378906 179.8000030517578,290.04998779296875 179.8000030517578,290.04998779296875 C188.02999877929688,285.8500061035156 196.49000549316406,286.5799865722656 203.69000244140625,290.5299987792969 C203.69000244140625,290.5299987792969 260.8800048828125,321.92999267578125 260.8800048828125,321.92999267578125 C262.5400085449219,322.79998779296875 265.1499938964844,323.1099853515625 266.9700012207031,322.7200012207031 C270.92999267578125,321.7699890136719 274.4800109863281,317.4200134277344 273.8500061035156,312.3599853515625 C273.8500061035156,312.3599853515625 273.8500061035156,312.3599853515625 273.8500061035156,312.3599853515625z"></path></g><g opacity="1" transform="matrix(1,0,0,1,0,0)"><path fill="rgb(255,216,102)" fill-opacity="1" d=" M252.00999450683594,147.6699981689453 C242.44000244140625,146.49000549316406 234.05999755859375,140.30999755859375 229.7899932861328,131.61000061035156 C229.7899932861328,131.61000061035156 196.8800048828125,64.22000122070312 196.8800048828125,64.22000122070312 C196.25,62.95000076293945 195.13999938964844,62 193.9499969482422,61.45000076293945 C191.80999755859375,60.5 187.6199951171875,61.130001068115234 186.1199951171875,64.22000122070312 C186.1199951171875,64.22000122070312 150.67999267578125,133.8300018310547 150.67999267578125,133.8300018310547 C147.1199951171875,140.9499969482422 140.24000549316406,145.92999267578125 132.3300018310547,146.9600067138672 C132.3300018310547,146.9600067138672 62.959999084472656,156.4499969482422 62.959999084472656,156.4499969482422 C60.90999984741211,156.69000244140625 58.93000030517578,157.47999572753906 57.65999984741211,159.13999938964844 C55.45000076293945,162.13999938964844 56.400001525878906,168.30999755859375 59.79999923706055,171.16000366210938 C59.79999923706055,171.16000366210938 86.22000122070312,192.83999633789062 86.22000122070312,192.83999633789062 C93.80999755859375,199.08999633789062 102.9800033569336,202.1699981689453 112.70999908447266,200.82000732421875 C112.70999908447266,200.82000732421875 194.89999389648438,188.9600067138672 194.89999389648438,188.9600067138672 C200.8300018310547,188.08999633789062 206.61000061035156,191.1699981689453 209.3000030517578,196.47000122070312 C209.6199951171875,197.11000061035156 209.85000610351562,197.74000549316406 210.08999633789062,198.3699951171875 C231.4499969482422,185.9499969482422 260.7900085449219,168.47000122070312 285.3900146484375,151.77999877929688 C285.3900146484375,151.77999877929688 252.00999450683594,147.6699981689453 252.00999450683594,147.6699981689453z"></path></g><g opacity="1" transform="matrix(1,0,0,1,0,0)"><path fill="rgb(255,255,255)" fill-opacity="1" d=" M194.97000122070312,62.81999969482422 C198.27000427246094,64.5199966430664 199.5800018310547,68.58000183105469 197.8800048828125,71.87999725341797 C197.8800048828125,71.87999725341797 161.97000122070312,141.8000030517578 161.97000122070312,141.8000030517578 C161.88999938964844,141.9600067138672 161.8000030517578,142.11000061035156 161.7100067138672,142.25999450683594 C156.67999267578125,150.4199981689453 146.77999877929688,158.11000061035156 136.60000610351562,159.5500030517578 C136.60000610351562,159.5500030517578 64.37999725341797,169.75 64.37999725341797,169.75 C60.70000076293945,170.27000427246094 57.310001373291016,167.72000122070312 56.790000915527344,164.0399932861328 C56.27000045776367,160.36000061035156 58.81999969482422,156.9600067138672 62.5,156.44000244140625 C62.5,156.44000244140625 134.72000122070312,146.22999572753906 134.72000122070312,146.22999572753906 C140.1300048828125,145.4600067138672 146.74000549316406,140.77000427246094 150.13999938964844,135.41000366210938 C150.13999938964844,135.41000366210938 185.9199981689453,65.7300033569336 185.9199981689453,65.7300033569336 C187.6199951171875,62.43000030517578 191.6699981689453,61.119998931884766 194.97000122070312,62.81999969482422 C194.97000122070312,62.81999969482422 194.97000122070312,62.81999969482422 194.97000122070312,62.81999969482422z"></path></g></g></g></g></svg>